<svg width="256" height="256" viewBox="0 0 256 256" fill="none" xmlns="http://www.w3.org/2000/svg">
<path fill-rule="evenodd" clip-rule="evenodd" d="M121.303 9.63627C125.183 7.45913 129.96 7.45913 133.834 9.63627C153.006 20.3963 210.697 52.7848 229.874 63.5448C233.754 65.7162 236.143 69.739 236.143 74.0933C236.143 95.6133 236.143 160.385 236.143 181.905C236.143 186.259 233.754 190.282 229.874 192.459C210.703 203.219 153.011 235.607 133.834 246.367C129.954 248.545 125.177 248.545 121.303 246.367C102.131 235.607 44.44 203.219 25.2628 192.459C21.3886 190.282 19 186.265 19 181.91C19 160.39 19 95.619 19 74.099C19 69.7448 21.3886 65.7219 25.2686 63.5448C44.4343 52.7848 102.137 20.3963 121.303 9.63627V9.63627Z" fill="#004482"/>
<path fill-rule="evenodd" clip-rule="evenodd" d="M20.7371 187.453C19.2171 185.418 19 183.487 19 180.887C19 159.493 19 95.0929 19 73.6929C19 69.3615 21.3829 65.3615 25.2514 63.2015C44.3542 52.5044 101.851 20.3044 120.954 9.60161C124.823 7.4359 130.063 7.48161 133.931 9.64732C153.034 20.3444 210.337 52.2701 229.44 62.9672C230.983 63.8358 232.16 64.8815 233.211 66.2587L20.7371 187.453Z" fill="#659AD2"/>
<path fill-rule="evenodd" clip-rule="evenodd" d="M127.571 48.0015C171.725 48.0015 207.571 83.8471 207.571 128.001C207.571 172.156 171.725 208.001 127.571 208.001C83.417 208.001 47.5713 172.156 47.5713 128.001C47.5713 83.8471 83.417 48.0015 127.571 48.0015V48.0015ZM127.571 88.0014C149.645 88.0014 167.571 105.921 167.571 128.001C167.571 150.076 149.645 168.001 127.571 168.001C105.497 168.001 87.5712 150.076 87.5712 128.001C87.5712 105.921 105.491 88.0014 127.571 88.0014V88.0014Z" fill="white"/>
<path fill-rule="evenodd" clip-rule="evenodd" d="M233.2 66.3159C236.148 69.0759 236.091 73.2359 236.091 76.5102C236.091 98.1959 235.908 159.876 236.143 181.561C236.165 183.824 235.417 186.207 234.297 188.001L125.246 128.002L233.2 66.3159Z" fill="#00599C"/>
</svg>
