<svg width="256" height="256" viewBox="0 0 256 256" fill="none" xmlns="http://www.w3.org/2000/svg">
<path d="M238.993 0.868652L218.586 229.471L126.859 254.901L35.3847 229.507L15 0.868652H238.993Z" fill="#264DE4"/>
<path d="M201.116 214.915L218.555 19.5635H126.996V235.464L201.116 214.915Z" fill="#2965F1"/>
<path d="M61.7316 104.362L64.2448 132.404H126.996V104.362H61.7316Z" fill="#EBEBEB"/>
<path d="M126.996 47.605H126.899H56.6814L59.2305 75.6468H126.996V47.605Z" fill="#EBEBEB"/>
<path d="M126.996 206.364V177.189L126.873 177.221L95.6434 168.789L93.647 146.424H78.4716H65.4977L69.4263 190.454L126.867 206.4L126.996 206.364Z" fill="#EBEBEB"/>
<path d="M161.429 132.403L158.174 168.771L126.899 177.212V206.386L184.386 190.453L184.808 185.716L191.397 111.892L192.081 104.362L197.144 47.605H126.899V75.6468H166.413L163.861 104.362H126.899V132.403H161.429Z" fill="white"/>
</svg>
