<svg viewBox="0 0 44 43" fill="none"
  xmlns="http://www.w3.org/2000/svg">
  <path d="M0 21.72C0 9.724 9.72501 0 21.717 0C33.713 0 43.439 9.724 43.439 21.72C43.439 31.313 37.221 39.448 28.597 42.326C27.496 42.538 27.104 41.862 27.104 41.281C27.104 40.569 27.131 38.226 27.131 35.322C27.131 33.297 26.436 31.971 25.657 31.301C30.495 30.764 35.573 28.928 35.573 20.584C35.573 18.213 34.733 16.273 33.341 14.756C33.564 14.206 34.309 11.997 33.124 9.008C33.124 9.008 31.304 8.42401 27.157 11.234C25.423 10.752 23.565 10.512 21.72 10.502C19.873 10.512 18.015 10.752 16.283 11.234C12.133 8.42401 10.311 9.008 10.311 9.008C9.12801 11.997 9.873 14.206 10.097 14.756C8.708 16.273 7.86101 18.213 7.86101 20.584C7.86101 28.906 12.932 30.77 17.755 31.318C17.135 31.861 16.573 32.818 16.376 34.221C15.139 34.777 11.992 35.736 10.055 32.417C10.055 32.417 8.90801 30.332 6.72801 30.178C6.72801 30.178 4.60701 30.152 6.57901 31.498C6.57901 31.498 8.00301 32.166 8.99101 34.676C8.99101 34.676 10.266 38.9 16.306 37.588C16.317 39.4 16.336 40.765 16.336 41.281C16.336 41.857 15.94 42.528 14.853 42.328C6.22301 39.456 0 31.316 0 21.72Z" fill="#1B1817"/>
</svg>
