<svg width="24" height="24" viewBox="0 0 24 24" fill="none" xmlns="http://www.w3.org/2000/svg">
<rect width="24" height="24" fill="#9F7AEA"/>
<path fill-rule="evenodd" clip-rule="evenodd" d="M4 14H5H6H18H19H20V15V17H21V22H20V24H4H3V17H4V15V14Z" fill="#2F80ED"/>
<path fill-rule="evenodd" clip-rule="evenodd" d="M5 14L17 14H19V15H20V17H21V21H22V17H21V15H20V14H19V13L17 13L5 13V14ZM4 15L4 14L5 14V15H4ZM3 17L3 15H4L4 17H3ZM3 17L3 21H2L2 17H3ZM20 24H21V22H20V24ZM5 21H6V18H7V17H6V18H5V21ZM13 24H12V16H13V24ZM18 18H17V17H18V18ZM18 18H19V21H18V18Z" fill="black"/>
<path fill-rule="evenodd" clip-rule="evenodd" d="M14 19V20H19V21H14V22H10V19H14ZM5 20.9985H9V19.9985H5V20.9985Z" fill="black"/>
<path fill-rule="evenodd" clip-rule="evenodd" d="M10 17.9985H14V18.9985H10V17.9985ZM10 21.9985H9V18.9985L10 18.9985V19.9985H12V20.9985H10L10 21.9985ZM14 21.9985V22.9985H10L10 21.9985H14ZM14 21.9985V18.9985H15V21.9985H14Z" fill="#F6E05E"/>
<path fill-rule="evenodd" clip-rule="evenodd" d="M9 5H8V7H7V9H6V13H7V15H8H9V16H15V15H16H17V13H18V9H17V7H16V5H15H9ZM21 24V22H18V24H21ZM3 22V24H6V22H3Z" fill="#DEB8A1"/>
<path fill-rule="evenodd" clip-rule="evenodd" d="M9 4H15V5H9V4ZM9 5V6H8V6.99854H7V5.99854H8V5H9ZM15 5H16V5.99854H17V6.99854H16V6H15V5ZM7 7H6V10H5V13H6V14H7V15H9V16H15V15H17V14H18V13H19V10H18V7H17V10H18V13H17V14H15V15H9V14H7V13H6V10H7V7ZM21 22H22V24H21V22ZM18 22V21H21V22H18ZM18 23H17V22H18V23ZM18 23H19V24H18V23ZM3 22H2L2 24H3L3 22ZM6 22H3V21H6V22ZM6 23H7V22H6V23ZM6 23V24H5V23H6Z" fill="black"/>
<rect x="14" y="7.99854" width="1" height="1" transform="rotate(90 14 7.99854)" fill="black"/>
<rect opacity="0.5" x="15" y="7.99854" width="1" height="1" transform="rotate(90 15 7.99854)" fill="white"/>
<rect x="10" y="7.99854" width="1" height="1" transform="rotate(90 10 7.99854)" fill="black"/>
<rect opacity="0.5" x="11" y="7.99854" width="1" height="1" transform="rotate(90 11 7.99854)" fill="white"/>
<rect x="13" y="9.99854" width="1" height="2" transform="rotate(90 13 9.99854)" fill="black"/>
<rect x="14" y="11.9985" width="1" height="4" transform="rotate(90 14 11.9985)" fill="#E77E7E"/>
<path fill-rule="evenodd" clip-rule="evenodd" d="M14 0H10V1V2H9V3V4H8V5H16V4H15V3V2H14V1V0Z" fill="#E53E3E"/>
<path fill-rule="evenodd" clip-rule="evenodd" d="M10 0V2H9V0H10ZM8 4V2H9V4H8ZM16 4H17V6H16V5.99854H8V6H7V4H8V4.99854H16V4ZM15 2V4H16V2H15ZM15 2V0H14V2H15Z" fill="black"/>
<path fill-rule="evenodd" clip-rule="evenodd" d="M3 22L3 24L6 24V22L3 22ZM21 22V24L18 24V22L21 22Z" fill="white"/>
<path fill-rule="evenodd" clip-rule="evenodd" d="M21 21V22L18 22V21H21ZM18 23H17V22L18 22V23ZM18 23H19V24L18 24V23ZM21 22V24H22V22L21 22ZM3 22L2 22V24H3L3 22ZM6 22V21H3L3 22H6ZM6 23H7V22L6 22V23ZM6 23V24L5 24V23H6Z" fill="black"/>
<path fill-rule="evenodd" clip-rule="evenodd" d="M8 7V6H7V7H6L6 8H5V9H4H3V10H4V11H5V12H4V13H3V14H2V15H3H4V14H5H6L6 15H7L7 16H8V17H9H10V18H11H12H13H14V17H15H16V16H17V15H18V14H19H20V15H21H22V14H21V13H20V12H19V11H20V10H21V9H20H19V8H18V7H17V6H16V7H13V8H16V7H17V12H16V13H15V12H14V11H12H10V12H9V13H8V12H7V7H8ZM8 7H11V8H8V7ZM10 12H12H14V13H13H12H11H10V12Z" fill="white"/>
</svg>
