<svg width="512" height="512" viewBox="0 0 512 512" fill="none" xmlns="http://www.w3.org/2000/svg">
<mask id="mask0" mask-type="alpha" maskUnits="userSpaceOnUse" x="0" y="0" width="512" height="512">
<path d="M0 256C0 45.184 45.184 0 256 0C466.816 0 512 45.184 512 256C512 466.816 466.816 512 256 512C45.184 512 0 466.816 0 256Z" fill="#C4C4C4"/>
</mask>
<g mask="url(#mask0)">
<path d="M512 0H0V512H512V0Z" fill="#9F7AEA"/>
<path fill-rule="evenodd" clip-rule="evenodd" d="M85.3333 298.667H106.667H128H384H405.333H426.667V320V362.667H448V469.334H426.667V512H85.3333H64V362.667H85.3333V320V298.667Z" fill="#2F80ED"/>
<path fill-rule="evenodd" clip-rule="evenodd" d="M106.667 298.666H362.667H405.333V320H426.667V362.666H448V448H469.333V362.666H448V320H426.667V298.666H405.333V277.333H362.667H106.667V298.666ZM85.3334 320V298.666H106.667V320H85.3334ZM64.0001 362.666V320H85.3334V362.666H64.0001ZM64.0001 362.666V448H42.6667V362.666H64.0001ZM426.667 512H448V469.333H426.667V512ZM106.667 448H128V384H149.333V362.666H128V384H106.667V448ZM277.333 512H256V341.333H277.333V512ZM384 384H362.667V362.666H384V384ZM384 384H405.333V448H384V384Z" fill="black"/>
<path fill-rule="evenodd" clip-rule="evenodd" d="M298.667 405.333V426.666H405.333V448H298.667V469.333H213.333V405.333H298.667ZM106.667 447.968H192V426.634H106.667V447.968Z" fill="black"/>
<path fill-rule="evenodd" clip-rule="evenodd" d="M213.333 383.959H298.667V405.292H213.333V383.959ZM213.333 469.292H192V405.292H213.333V426.626H256V447.959H213.333V469.292ZM298.667 469.292V490.626H213.333V469.292H298.667ZM298.667 469.292V405.292H320V469.292H298.667Z" fill="#F6E05E"/>
<path fill-rule="evenodd" clip-rule="evenodd" d="M192 106.667H170.667V149.334H149.333V192H128V277.334H149.333V320H170.667H192V341.334H320V320H341.333H362.667V277.334H384V192H362.667V149.334H341.333V106.667H320H192ZM448 512V469.334H384V512H448ZM64 469.334V512H128V469.334H64Z" fill="#DEB8A1"/>
<path fill-rule="evenodd" clip-rule="evenodd" d="M192 85.333H320V106.666H192V85.333ZM192 106.666V128H170.667V149.302H149.333V127.969H170.667V106.666H192ZM320 106.666H341.333V127.969H362.667V149.302H341.333V128H320V106.666ZM149.333 149.333H128V213.333H106.667V277.333H128V298.666H149.333V320H192V341.333H320V320H362.667V298.666H384V277.333H405.333V213.333H384V149.333H362.667V213.333H384V277.333H362.667V298.666H320V320H192V298.666H149.333V277.333H128V213.333H149.333V149.333ZM448 469.333H469.333V512H448V469.333ZM384 469.333V448H448V469.333H384ZM384 490.666H362.667V469.333H384V490.666ZM384 490.666H405.333V512H384V490.666ZM64.0001 469.333H42.6667V512H64.0001V469.333ZM128 469.333H64.0001V448H128V469.333ZM128 490.666H149.333V469.333H128V490.666ZM128 490.666V512H106.667V490.666H128Z" fill="black"/>
<path d="M298.667 191.979V170.646H277.333V191.979H298.667Z" fill="black"/>
<path opacity="0.5" d="M320 191.979V170.646H298.667V191.979H320Z" fill="white"/>
<path d="M213.333 191.979V170.646H192V191.979H213.333Z" fill="black"/>
<path opacity="0.5" d="M234.667 191.979V170.646H213.333V191.979H234.667Z" fill="white"/>
<path d="M277.333 234.646V213.312H234.667V234.646H277.333Z" fill="black"/>
<path d="M298.667 277.292V255.959H213.333V277.292H298.667Z" fill="#E77E7E"/>
<path fill-rule="evenodd" clip-rule="evenodd" d="M298.667 0H213.333V21.3333V42.6667H192V64V85.3333H170.667V106.667H341.333V85.3333H320V64V42.6667H298.667V21.3333V0Z" fill="#E53E3E"/>
<path fill-rule="evenodd" clip-rule="evenodd" d="M213.333 0V42.6667H192V0H213.333ZM170.667 85.3333V42.6667H192V85.3333H170.667ZM341.333 85.3333H362.667V128H341.333V127.969H170.667V128H149.333V85.3333H170.667V106.636H341.333V85.3333ZM320 42.6667V85.3333H341.333V42.6667H320ZM320 42.6667V0H298.667V42.6667H320Z" fill="black"/>
<path fill-rule="evenodd" clip-rule="evenodd" d="M64 469.333V512H128V469.333H64ZM448 469.333V512H384V469.333H448Z" fill="white"/>
<path fill-rule="evenodd" clip-rule="evenodd" d="M448 448V469.333H384V448H448ZM384 490.667H362.667V469.333H384V490.667ZM384 490.667H405.333V512H384V490.667ZM448 469.333V512H469.333V469.333H448ZM64.0001 469.333H42.6667V512H64.0001V469.333ZM128 469.333V448H64.0001V469.333H128ZM128 490.667H149.333V469.333H128V490.667ZM128 490.667V512H106.667V490.667H128Z" fill="black"/>
<path fill-rule="evenodd" clip-rule="evenodd" d="M170.667 149.333V128H149.333V149.333H128V170.667H106.667V192H85.3334H64.0001V213.333H85.3334V234.667H106.667V256H85.3334V277.333H64.0001V298.667H42.6667V320H64.0001H85.3334V298.667H106.667H128V320H149.333V341.333H170.667V362.667H192H213.333V384H234.667H256H277.333H298.667V362.667H320H341.333V341.333H362.667V320H384V298.667H405.333H426.667V320H448H469.333V298.667H448V277.333H426.667V256H405.333V234.667H426.667V213.333H448V192H426.667H405.333V170.667H384V149.333H362.667V128H341.333V149.333H277.333V170.667H341.333V149.333H362.667V256H341.333V277.333H320V256H298.667V234.667H256H213.333V256H192V277.333H170.667V256H149.333V149.333H170.667ZM170.667 149.333H234.667V170.667H170.667V149.333ZM213.333 256H256H298.667V277.333H277.333H256H234.667H213.333V256Z" fill="white"/>
</g>
</svg>
