<svg width="512" height="512" viewBox="0 0 512 512" fill="none" xmlns="http://www.w3.org/2000/svg">
<mask id="mask0" mask-type="alpha" maskUnits="userSpaceOnUse" x="0" y="0" width="512" height="512">
<path d="M0 256C0 45.184 45.184 0 256 0C466.816 0 512 45.184 512 256C512 466.816 466.816 512 256 512C45.184 512 0 466.816 0 256Z" fill="#C4C4C4"/>
</mask>
<g mask="url(#mask0)">
<path d="M512 0H0V512H512V0Z" fill="#2B7CEE"/>
<path fill-rule="evenodd" clip-rule="evenodd" d="M380.451 380.557C311.718 449.289 200.282 449.289 131.549 380.557C92.2736 341.281 92.2737 277.603 131.549 238.327C170.825 199.052 234.503 199.052 273.779 238.327L273.781 238.325C283.62 247.868 299.332 247.776 309.059 238.05C318.785 228.324 318.876 212.611 309.334 202.772L309.336 202.77C289.699 183.132 289.699 151.293 309.336 131.655C328.974 112.018 360.813 112.018 380.451 131.655C449.183 200.388 449.183 311.825 380.451 380.557Z" fill="#FFA801"/>
<path fill-rule="evenodd" clip-rule="evenodd" d="M356.572 256.106C356.572 235.277 373.457 218.392 394.286 218.392C415.115 218.392 432 235.277 432 256.106C432 353.308 353.202 432.106 256 432.106C158.798 432.106 80 353.308 80 256.106C80 207.505 119.399 168.106 168 168.106C216.601 168.106 256 207.505 256 256.106H256.001C256.212 283.697 278.645 305.999 306.286 305.999C333.927 305.999 356.358 283.697 356.57 256.106H356.572Z" fill="#FFBF1A"/>
<path fill-rule="evenodd" clip-rule="evenodd" d="M131.549 380.557C62.817 311.825 62.817 200.387 131.549 131.655C161.006 102.198 208.765 102.198 238.221 131.655C267.678 161.111 267.678 208.871 238.221 238.327L238.222 238.328C213.952 262.897 214.045 302.488 238.499 326.943C262.953 351.397 302.545 351.49 327.114 327.22H327.115C341.843 312.492 365.722 312.492 380.451 327.22C395.179 341.949 395.179 365.828 380.451 380.557C311.718 449.289 200.281 449.289 131.549 380.557Z" fill="#FFD701"/>
</g>
</svg>
