<svg width="256" height="256" viewBox="0 0 256 256" fill="none" xmlns="http://www.w3.org/2000/svg">
<path d="M35.5 230L15 0H240.5L220 230L127.5 256" fill="#E34F26"/>
<path d="M128 236L202.5 215.5L220 18.5H128" fill="#EF652A"/>
<path d="M128 104H90.5L88 75H128V47H127.5H57L57.5 54.5L64.5 132.5H128V104ZM128 177.5H127.5L96 169L94 146.5H79H66L69.5 191L127.5 207H128V177.5Z" fill="#EBEBEB"/>
<path d="M127.5 104V132.5H162.5L159 169L127.5 177.5V207L185.5 191L186 186L192.5 111.5L193.5 104H185.5H127.5ZM127.5 47V64.5V75H196L196.5 69L198 54.5L198.5 47H127.5Z" fill="white"/>
</svg>
