<svg width="119" height="123" viewBox="0 0 119 123" fill="none" xmlns="http://www.w3.org/2000/svg">
<path fill-rule="evenodd" clip-rule="evenodd" d="M53.0384 73.1584C53.2966 73.0927 53.5505 73.0513 53.8 73.03C54.96 72.93 55.86 73.26 56.62 73.58C56.65 73.59 56.68 73.6 56.72 73.62C57.11 73.78 57.49 74 57.86 74.26C59.05 75.11 60.03 76.46 60.56 77.93C60.7352 78.4266 60.8631 78.942 60.934 79.4638C60.989 79.6457 61.016 79.8394 61.01 80.04C61.0055 80.1977 61.0012 80.3555 60.9969 80.5132L60.9962 80.5492L60.9953 80.5836L60.9939 80.6265C60.8022 87.861 60.8471 95.0768 61.11 100.88C61.36 106.25 61.79 110.29 62.39 111.79C63.03 113.38 64.02 115.73 65.92 117.32C67.77 118.88 70.62 119.83 75.16 118.86C79.13 118.01 81.8 116.8 83.58 114.95C85.34 113.12 86.34 110.53 86.96 106.91C87.42 104.27 88.05 99.66 88.62 95.07C89.3376 89.3488 89.9956 83.568 90.1386 81.6785C89.8225 74.854 93.1954 73.6429 95.56 72.9701C95.31 72.6101 94.97 72.1801 94.59 71.7101C93.38 70.2001 91.83 68.2601 90.6 65.2901C90.41 64.8401 89.86 63.8401 89.12 62.5201C85.99 56.9101 79.83 45.8501 81.04 38.3001C81.9 32.9101 86.01 29.3301 96.28 30.4001L96.18 30.1001C95.69 28.7101 94.91 26.8901 93.78 24.8501C89.3 16.6901 79.53 5.31007 62.18 5.03007C41.254 4.69013 37.4149 25.4807 36.7247 34.249C37.6644 33.6643 38.7365 33.1043 39.89 32.63C41.67 31.9 43.66 31.29 45.63 30.99C47.71 30.68 49.81 30.71 51.7 31.3C54.66 32.23 57.01 34.42 57.91 38.61C61.1566 53.604 58.2562 60.0562 55.9873 65.1038L55.98 65.12L55.9302 65.2313C55.5586 66.06 55.2081 66.8416 54.94 67.55C54.9323 67.5886 54.9186 67.6212 54.9036 67.6571C54.8992 67.6677 54.8946 67.6786 54.89 67.69C54.4817 68.7905 54.5057 68.7249 54.6087 68.4442L54.6087 68.4441L54.6088 68.4439L54.6089 68.4435L54.609 68.4432L54.6091 68.443L54.6092 68.4426C54.7459 68.0698 55.02 67.3226 54.61 68.41L54.5418 68.5959C53.9309 70.2604 53.3682 71.7936 53.0384 73.1584ZM36.5491 38.4417C36.5718 38.3216 36.5826 38.1973 36.58 38.0701L36.5799 38.0614L36.5797 38.054C36.8744 37.8586 38.7781 37.001 41.23 36C42.75 35.38 44.45 34.86 46.15 34.6C47.74 34.36 49.29 34.37 50.61 34.78C52.37 35.33 53.78 36.71 54.36 39.4C57.35 53.24 54.73 59.08 52.67 63.65C52.6161 63.7717 52.5624 63.8924 52.5089 64.0126L52.506 64.019L52.5055 64.0203C52.1733 64.7664 51.8506 65.4913 51.55 66.29L51.49 66.44C50.8609 68.1382 51.0191 67.7221 51.1898 67.2683L51.1547 67.3628C50.503 69.1158 49.8956 70.7496 49.52 72.3C48.96 72.3 48.4 72.26 47.84 72.2C44.82 71.78 42.07 70.23 39.99 67.95C37.88 65.64 36.46 62.59 36.13 59.19C36.01 57.97 36.04 56.7 36.22 55.39C37.1492 48.6961 36.8007 42.7908 36.6205 39.7384L36.62 39.73C36.5862 39.1956 36.5616 38.7528 36.5491 38.4417ZM32.9575 37.9591C32.9387 36.0394 33.0359 18.4312 43.2847 8.37114C33.5834 5.18759 1.96078 -2.58256 3.7 32.1C3.95 37.15 7.95 57.81 14.03 72.22C15.95 76.76 18.06 80.64 20.3 83.12C22.17 85.2 24.08 86.2 25.92 85.54C26.94 85.17 28.03 84.34 29.18 82.96C33.3041 78.0009 37.1545 73.8037 38.9271 71.9092C38.3656 71.429 37.8321 70.9115 37.33 70.36C34.72 67.5 32.96 63.72 32.55 59.5C32.4 58 32.43 56.44 32.65 54.87C33.5317 48.5896 33.2063 42.9666 33.0349 40.0036L33.03 39.92C32.98 39.12 32.95 38.52 32.95 38.06C32.9503 38.0274 32.9528 37.9938 32.9575 37.9591ZM77.4171 4.62903C87.318 8.97889 93.5418 16.8958 96.95 23.1001C98.17 25.3201 99.04 27.3401 99.59 28.9101C100.21 30.6701 100.44 32.0501 100.34 32.6601C100.327 32.7437 100.311 32.8244 100.292 32.9022C100.38 35.4737 100.059 37.5682 99.7201 39.76C99.4501 41.5 99.1701 43.32 99.1101 45.35C99.0501 47.28 99.3001 49.42 99.5701 51.62C100.241 57.173 100.95 63.1031 97.2132 69.2338L97.3504 69.4073L97.4 69.4701C97.5517 69.6555 97.6985 69.8355 97.8394 70.0118C104.288 59.8611 108.984 48.7161 111.68 38.97C114.78 27.75 115.27 18.6 112.7 15.32C102.28 2.01003 86.21 2.91003 77.96 4.52003C77.7749 4.55617 77.5939 4.59254 77.4171 4.62903ZM84.61 38.8601C85.1768 35.3085 88.3845 33.0506 96.6772 34.0838C96.6465 35.8742 96.3975 37.515 96.1301 39.23L96.128 39.2434L96.128 39.2435C95.8486 41.0493 95.5599 42.9158 95.4901 45.25C95.41 47.51 95.6801 49.75 95.9601 52.05C96.4976 56.5241 97.0653 61.2614 94.899 65.8902C94.5628 65.293 94.2383 64.6398 93.94 63.9201C93.67 63.2601 93.07 62.1801 92.28 60.7601L92.2415 60.6908C89.3097 55.4197 83.6045 45.1623 84.61 38.8601ZM97.71 76.1101C99.76 77.6701 104.22 79.1201 113.79 77.1401L113.91 77.1101C112.77 78.1901 110.92 79.4301 108.71 80.4601C106.56 81.4601 103.19 82.1301 100.06 82.3101C98.27 82.4101 96.59 82.3501 95.28 82.0901C94.46 81.9201 93.9 81.7501 93.75 81.5901C93.54 77.2901 95.53 76.7301 96.81 76.3701C96.8809 76.3501 96.9507 76.3307 97.0196 76.3115C97.2619 76.2442 97.492 76.1801 97.71 76.1101ZM52.6 77.67C51.86 78.5 51.25 79.27 50.73 79.93L50.7268 79.9341C48.5093 82.7509 47.8167 83.6307 40.93 85.05C39.69 85.31 38.85 85.56 38.33 85.81C38.97 86.27 39.93 86.65 40.77 86.86C42.47 87.29 45.29 87.8 48.31 87.29C51.25 86.79 54.42 85.28 56.99 81.68C57.07 81.56 57.14 81.43 57.2 81.3C57.46 80.67 57.4 79.88 57.14 79.13C56.86 78.33 56.35 77.63 55.76 77.2C55.62 77.1 55.48 77.02 55.33 76.96L55.24 76.92C54.87 76.77 54.46 76.61 54.11 76.64C53.73 76.68 53.25 76.94 52.6 77.67ZM45.98 37.75C45.92 38.21 46.25 38.95 46.84 39.57C47.39 40.15 48.18 40.68 49.1 40.8H49.11C50.04 40.93 50.9 40.62 51.53 40.19C52.2 39.74 52.65 39.1 52.71 38.66C52.79 38.1 52.4 37.57 51.7 37.18C51.17 36.88 50.42 36.64 49.58 36.52H49.55C48.72 36.41 47.94 36.44 47.35 36.58C46.57 36.77 46.06 37.16 45.98 37.73V37.75ZM92.52 38.1601C93.05 37.6001 93.3501 36.9501 93.3 36.5701C93.2401 36.1301 92.8101 35.8201 92.15 35.6701C91.59 35.5401 90.84 35.5101 90.04 35.6201C89.2401 35.7301 88.53 35.9601 88.03 36.2401C87.44 36.5701 87.11 36.9901 87.17 37.4201C87.23 37.7901 87.62 38.3401 88.22 38.7401C88.8 39.1301 89.58 39.4101 90.42 39.3001H90.43C91.2701 39.1901 92.01 38.7001 92.52 38.1601Z" fill="#336791"/>
</svg>
