<svg width="256" height="256" viewBox="0 0 256 256" fill="none" xmlns="http://www.w3.org/2000/svg">
<path d="M137.926 195.603C137.816 194.203 137.75 193.294 137.75 193.294C137.75 193.294 133.505 164.678 128.453 156.138C127.653 154.785 128.54 149.225 130.77 140.99C132.074 143.245 137.579 152.89 138.685 155.998C139.929 159.512 140.191 160.519 140.191 160.519C140.191 160.519 137.172 144.984 132.218 135.919C133.304 132.254 134.601 128.204 136.069 123.874C137.946 127.166 142.439 135.138 143.428 137.903C143.627 138.471 143.796 138.954 143.947 139.396C143.996 139.13 144.044 138.865 144.093 138.599C142.958 133.786 140.73 125.412 137.68 119.224C144.447 84.0011 167.528 36.9209 191.19 15.9151H36.8323C26.4871 15.9151 18.0227 24.381 18.0227 34.7259V204.954C18.0227 215.298 26.4871 223.763 36.8323 223.763H138.497C137.764 214.889 137.519 205.072 137.926 195.603" fill="#0F80CC"/>
<path d="M130.77 140.99C132.074 143.245 137.579 152.89 138.685 155.998C139.929 159.511 140.191 160.518 140.191 160.518C140.191 160.518 137.172 144.984 132.218 135.919C133.304 132.254 134.601 128.203 136.069 123.874C137.785 126.885 141.684 133.801 143.094 137.078C143.146 136.46 143.199 135.841 143.253 135.229C142.004 130.429 140.108 124.147 137.68 119.224C143.912 86.793 163.972 44.3277 185.582 21.4023H36.8322C29.4865 21.4023 23.5088 27.3784 23.5088 34.7255V192.534C57.1975 179.604 97.8192 167.785 132.78 168.292C131.482 163.287 130.004 158.761 128.453 156.138C127.653 154.784 128.54 149.225 130.77 140.99" fill="url(#sqlite-gradient)"/>
<path d="M227.195 10.344C216.623 0.916324 203.823 4.70327 191.19 15.9149C189.315 17.5805 187.444 19.4285 185.583 21.4024C163.972 44.3278 143.912 86.7931 137.68 119.224C140.108 124.147 142.004 130.43 143.253 135.229C143.573 136.46 143.862 137.616 144.093 138.599C144.641 140.926 144.936 142.434 144.936 142.434C144.936 142.434 144.742 141.701 143.947 139.396C143.796 138.954 143.627 138.471 143.427 137.903C143.342 137.668 143.224 137.383 143.094 137.079C141.684 133.802 137.785 126.885 136.069 123.874C134.601 128.204 133.304 132.254 132.218 135.919C137.172 144.984 140.191 160.518 140.191 160.518C140.191 160.518 139.929 159.512 138.685 155.998C137.579 152.89 132.074 143.245 130.77 140.99C128.54 149.225 127.653 154.784 128.453 156.138C130.004 158.761 131.482 163.287 132.78 168.292C135.712 179.567 137.75 193.294 137.75 193.294C137.75 193.294 137.816 194.203 137.926 195.603C137.519 205.072 137.763 214.889 138.496 223.762C139.468 235.509 141.296 245.6 143.627 251L145.209 250.137C141.787 239.498 140.397 225.554 141.006 209.473C141.927 184.894 147.583 155.252 158.034 124.357C175.691 77.7184 200.189 40.2985 222.611 22.4282C202.175 40.8841 174.516 100.624 166.237 122.747C156.966 147.52 150.396 170.768 146.437 193.041C153.268 172.16 175.356 163.185 175.356 163.185C175.356 163.185 186.189 149.824 198.85 130.736C191.266 132.466 178.813 135.427 174.642 137.179C168.49 139.76 166.832 140.641 166.832 140.641C166.832 140.641 186.761 128.504 203.86 123.009C227.375 85.9729 252.994 33.3586 227.195 10.344" fill="#003B57"/>
<defs>
<linearGradient id="sqlite-gradient" x1="116.963" y1="24.9044" x2="116.963" y2="183.017" gradientUnits="userSpaceOnUse">
<stop stop-color="#97D9F6"/>
<stop offset="0.920245" stop-color="#0F80CC"/>
<stop offset="1" stop-color="#0F80CC"/>
</linearGradient>
</defs>
</svg>
