<svg width="128" height="33" viewBox="0 0 128 33" fill="none" xmlns="http://www.w3.org/2000/svg">
<path d="M8.0284 25.4654C13.1282 25.4654 17.2181 22.6882 17.2181 18.127C17.2181 14.5925 15.1143 12.1688 11.0075 10.6877L9.12242 10.0145C6.05917 8.90362 4.46022 7.5908 4.46022 5.30178C4.46022 3.02959 6.09283 1.44747 9.12242 1.44747C12.1857 1.44747 14.3232 3.70283 15.1816 7.5403H15.8885L15.7034 1.93557C14.5084 1.11085 12.1857 0.420776 9.12242 0.420776C3.82064 0.420776 0.0841552 2.91177 0.0841552 7.37199C0.0841552 10.8224 2.28902 13.1955 6.29481 14.5925L8.21354 15.2826C11.4283 16.4439 12.8421 17.8746 12.8421 20.1804C12.8421 22.7387 10.9065 24.4387 8.01157 24.4387C4.59487 24.4387 1.63261 22.0318 0.690072 17.5716H0L0.235634 23.7318C1.81775 24.708 4.59487 25.4654 8.0284 25.4654Z" fill="black"/>
<path d="M19.8943 16.9657C19.8943 22.3348 23.008 25.398 26.7108 25.398C29.2018 25.398 31.3057 24.1694 32.1473 22.2338L32.1136 30.178C32.1136 31.4909 31.8275 31.8107 29.9256 32.1136V32.8373H38.7619V32.1136C37.0451 31.8443 36.7926 31.5077 36.7926 30.3632V8.53333H34.4363L32.5007 10.6372C31.777 9.24024 30.0266 8.21354 27.7544 8.21354C23.4456 8.21354 19.8943 11.4956 19.8943 16.9657ZM24.7416 16.4944C24.7416 12.1857 26.5089 9.59369 29.1682 9.59369C30.5147 9.59369 31.6592 10.3343 32.1136 11.2431V21.611C31.5077 22.7219 30.4305 23.3783 28.9494 23.3783C26.492 23.3783 24.7416 20.82 24.7416 16.4944Z" fill="black"/>
<path d="M46.2685 8.33136L39.6203 9.12242V9.79566L40.5291 10.0818C41.4548 10.4016 41.5727 10.6036 41.5727 11.6302V20.1131C41.5727 23.6981 43.8448 25.4149 47.1101 25.4149C49.7862 25.4149 51.8059 24.1357 52.6811 22.2843V25.2802L59.2957 24.5396V23.8664L58.4037 23.5971C57.4611 23.2773 57.3433 23.0585 57.3433 22.0318V8.33136L50.6782 9.12242V9.79566L51.6039 10.0818C52.5297 10.4016 52.6643 10.6036 52.6643 11.6302V21.6615C52.0752 22.6882 50.9644 23.3951 49.5169 23.3951C47.4299 23.3951 46.2685 22.1496 46.2685 19.6418V8.33136Z" fill="black"/>
<path d="M64.7658 5.82354C66.146 5.82354 67.2568 4.79684 67.2568 3.45036C67.2568 2.10388 66.146 1.07719 64.7658 1.07719C63.3857 1.07719 62.258 2.10388 62.258 3.45036C62.258 4.79684 63.3857 5.82354 64.7658 5.82354ZM67.4251 8.33136L60.76 9.12242V9.79566L61.6857 10.0818C62.6114 10.4016 62.7461 10.6036 62.7461 11.6302V22.5704C62.7461 23.7654 62.4431 24.0852 60.76 24.3713V25.0951H69.3943V24.3713C67.7112 24.0852 67.4251 23.7654 67.4251 22.5704V8.33136Z" fill="black"/>
<path d="M77.4732 8.33136L70.8586 9.12242V9.79566L71.7844 10.0818C72.7101 10.3847 72.8447 10.6036 72.8447 11.6302V22.6209C72.8447 23.7654 72.5754 24.102 70.8586 24.3713V25.0951H79.6949V24.3713C77.793 24.0684 77.5237 23.7486 77.5237 22.4358L77.5069 13.1619C78.298 12.4045 80.0316 11.9164 81.7147 11.9164C82.573 11.9164 83.4146 12.0342 83.8354 12.1688C84.0205 11.849 84.2057 11.2263 84.2057 10.6036C84.2057 9.32439 83.5661 8.2977 82.1691 8.2977C80.6038 8.2977 79.2068 9.64418 77.4732 12.6401V8.33136Z" fill="black"/>
<path d="M93.7489 25.4149C96.6606 25.4149 99.0506 24.2872 100.229 22.5872V21.8635C99.3368 22.7219 97.8893 23.3446 96.1557 23.3446C92.7895 23.3446 90.0629 20.618 90.0629 15.9558C90.0629 12.051 92.1331 9.45904 95.331 9.45904C96.4082 9.45904 97.317 9.74517 98.0071 10.2501C97.9398 10.2333 97.8725 10.2333 97.822 10.2333C96.6606 10.2333 95.7181 11.1926 95.7181 12.4045C95.7181 13.6163 96.6775 14.5757 97.9229 14.5757C99.118 14.5757 100.111 13.6331 100.111 12.3203C100.111 10.0986 97.9903 8.23038 94.136 8.23038C88.9857 8.23038 85.1987 11.8154 85.1987 16.8479C85.1987 22.0487 88.9352 25.4149 93.7489 25.4149Z" fill="black"/>
<path d="M108.56 0L101.895 0.791059V1.4643L102.821 1.75043C103.746 2.07022 103.881 2.27219 103.881 3.29888V22.5704C103.881 23.7654 103.578 24.0852 101.895 24.3713V25.0951H110.529V24.3713C108.846 24.0852 108.56 23.7654 108.56 22.5704V0Z" fill="black"/>
<path d="M112.532 16.8479C112.532 22.0823 116.269 25.4149 121.133 25.4149C124.112 25.4149 126.536 24.304 127.697 22.5704V21.8298C126.805 22.7387 125.391 23.3951 123.641 23.3951C120.106 23.3951 117.598 20.6685 117.279 16.2083H127.916C127.966 15.939 128 15.535 128 15.1479C128 11.058 125.324 8.23038 120.847 8.23038C115.814 8.23038 112.532 11.8154 112.532 16.8479ZM117.228 15.1816C117.228 11.3609 118.558 9.22341 120.847 9.22341C122.85 9.22341 123.792 11.2768 123.792 14.2895C123.792 14.6935 123.775 15.0133 123.759 15.2826L117.245 15.3499C117.228 15.2994 117.228 15.2489 117.228 15.1816Z" fill="black"/>
</svg>
