<svg width="512" height="512" viewBox="0 0 512 512" fill="none" xmlns="http://www.w3.org/2000/svg">
<mask id="squircle-mask" mask-type="alpha" maskUnits="userSpaceOnUse" x="0" y="0" width="512" height="512">
<path d="M0 256C0 45.184 45.184 0 256 0C466.816 0 512 45.184 512 256C512 466.816 466.816 512 256 512C45.184 512 0 466.816 0 256Z" fill="#C4C4C4"/>
</mask>
<g mask="url(#squircle-mask)">
<path d="M512 0H0V512H512V0Z" fill="url(#paint0_linear)"/>
</g>
<path fill-rule="evenodd" clip-rule="evenodd" d="M256 96C242.763 96 230.588 96.2633 219.381 96.8459C210.556 97.3046 203.031 90.5227 202.572 81.6981C202.113 72.8734 208.895 65.3478 217.72 64.889C229.609 64.271 242.356 64 256 64C269.644 64 282.391 64.271 294.28 64.889C303.105 65.3478 309.887 72.8734 309.428 81.6981C308.969 90.5227 301.444 97.3046 292.619 96.8459C281.413 96.2633 269.237 96 256 96ZM352.051 87.9381C355.272 79.7097 364.554 75.6509 372.783 78.8726C402.188 90.3856 421.614 109.812 433.127 139.217C436.349 147.446 432.29 156.728 424.062 159.949C415.834 163.171 406.552 159.112 403.33 150.884C395.069 129.785 382.215 116.931 361.116 108.67C352.888 105.448 348.829 96.1664 352.051 87.9381ZM159.949 87.9381C163.171 96.1664 159.112 105.448 150.884 108.67C129.785 116.931 116.931 129.785 108.67 150.884C105.448 159.112 96.1664 163.171 87.9381 159.949C79.7097 156.728 75.6509 147.446 78.8726 139.217C90.3856 109.812 109.812 90.3856 139.217 78.8726C147.446 75.6509 156.728 79.7097 159.949 87.9381ZM81.6981 202.572C90.5227 203.031 97.3046 210.556 96.8459 219.381C96.2633 230.587 96 242.763 96 256C96 269.237 96.2633 281.412 96.8459 292.619C97.3046 301.444 90.5227 308.969 81.6981 309.428C72.8734 309.887 65.3478 303.105 64.889 294.28C64.271 282.391 64 269.644 64 256C64 242.356 64.271 229.609 64.889 217.72C65.3478 208.895 72.8734 202.113 81.6981 202.572ZM430.302 202.572C439.127 202.113 446.652 208.895 447.111 217.72C447.729 229.609 448 242.356 448 256C448 269.644 447.729 282.391 447.111 294.28C446.652 303.105 439.127 309.887 430.302 309.428C421.477 308.969 414.695 301.444 415.154 292.619C415.737 281.413 416 269.237 416 256C416 242.763 415.737 230.588 415.154 219.381C414.695 210.556 421.477 203.031 430.302 202.572ZM87.9381 352.051C96.1664 348.829 105.448 352.888 108.67 361.116C116.931 382.215 129.785 395.069 150.884 403.33C159.112 406.552 163.171 415.834 159.949 424.062C156.728 432.29 147.446 436.349 139.217 433.127C109.812 421.614 90.3856 402.188 78.8726 372.783C75.6509 364.554 79.7097 355.272 87.9381 352.051ZM424.062 352.051C432.29 355.272 436.349 364.554 433.127 372.783C421.614 402.188 402.188 421.614 372.783 433.127C364.554 436.349 355.272 432.29 352.051 424.062C348.829 415.834 352.888 406.552 361.116 403.33C382.215 395.069 395.069 382.215 403.33 361.116C406.552 352.888 415.834 348.829 424.062 352.051ZM202.572 430.302C203.031 421.477 210.556 414.695 219.381 415.154C230.587 415.737 242.763 416 256 416C269.237 416 281.412 415.737 292.619 415.154C301.444 414.695 308.969 421.477 309.428 430.302C309.887 439.127 303.105 446.652 294.28 447.111C282.391 447.729 269.644 448 256 448C242.356 448 229.609 447.729 217.72 447.111C208.895 446.652 202.113 439.127 202.572 430.302Z" fill="white" fill-opacity="0.92"/>
<defs>
<linearGradient id="paint0_linear" x1="0" y1="0" x2="512" y2="512" gradientUnits="userSpaceOnUse">
<stop stop-color="#FFCC33"/>
<stop offset="0.505208" stop-color="#F53D3D"/>
<stop offset="1" stop-color="#CC0099"/>
</linearGradient>
</defs>
</svg>
