<svg width="256" height="256" viewBox="0 0 256 256" fill="none" xmlns="http://www.w3.org/2000/svg">
<path d="M255.982 70.9069C255.967 68.3323 255.939 65.759 255.867 63.1814C255.717 57.5744 255.386 51.9165 254.389 46.3694C253.378 40.7361 251.725 35.4981 249.12 30.3807C246.563 25.3552 243.219 20.7564 239.231 16.7684C235.244 12.7804 230.645 9.43768 225.618 6.87901C220.505 4.2768 215.266 2.62419 209.638 1.61296C204.088 0.613373 198.43 0.284057 192.818 0.13233C190.242 0.0625012 187.668 0.0331903 185.093 0.0172417C182.036 0 178.977 0 175.921 0H108.154H80.0797C77.0206 0 73.9649 0 70.9088 0.0176727C68.3325 0.0336213 65.7557 0.0629322 63.1832 0.132761C61.7806 0.170693 60.375 0.219832 58.9685 0.287505C54.7495 0.490957 50.524 0.863809 46.3635 1.61339C42.1423 2.37203 38.1397 3.49101 34.2456 5.10096C32.9478 5.63717 31.6615 6.22857 30.3831 6.87901C26.6123 8.79801 23.0821 11.158 19.8712 13.9003C18.8009 14.8145 17.766 15.771 16.7694 16.768C12.7806 20.756 9.43741 25.3548 6.88003 30.3803C4.27481 35.4976 2.62392 40.7357 1.61183 46.369C0.616124 51.9161 0.285083 57.5739 0.134219 63.1809C0.0635275 65.7586 0.0337856 68.3319 0.0169749 70.9065C-0.00242198 73.9643 0.000164275 77.0226 0.000164275 80.0795V121.813V175.919C0.000164275 178.979 -0.00285302 182.034 0.0169749 185.094C0.0337856 187.669 0.0635275 190.242 0.134219 192.816C0.285083 198.426 0.615693 204.085 1.61183 209.629C2.62392 215.261 4.27481 220.504 6.88003 225.62C9.43741 230.647 12.7806 235.244 16.7694 239.23C20.7553 243.22 25.3554 246.562 30.3835 249.123C35.497 251.725 40.7354 253.376 46.3648 254.387C51.9115 255.385 57.5737 255.717 63.1837 255.867C65.7561 255.936 68.3329 255.966 70.9093 255.981C73.9653 256.003 77.021 256 80.0801 256H175.921C178.977 256 182.036 256.003 185.092 255.981C187.668 255.966 190.242 255.936 192.818 255.867C198.429 255.717 204.087 255.385 209.637 254.387C215.265 253.376 220.504 251.725 225.617 249.123C230.645 246.563 235.244 243.22 239.231 239.23C243.219 235.244 246.563 230.647 249.12 225.62C251.725 220.504 253.378 215.261 254.389 209.629C255.386 204.085 255.717 198.426 255.867 192.816C255.938 190.242 255.966 187.669 255.982 185.094C256.002 182.034 256 178.979 256 175.919V80.0795C256 77.0226 256.002 73.9643 255.982 70.9069Z" fill="#F05138"/>
<path d="M202.851 158.023C202.845 158.016 202.84 158.01 202.833 158.003C203.117 157.039 203.409 156.081 203.657 155.093C214.282 112.761 188.35 62.7126 144.468 36.3608C163.698 62.4299 172.2 94.0055 164.646 121.619C163.972 124.082 163.162 126.446 162.267 128.743C161.295 128.105 160.071 127.38 158.427 126.474C158.427 126.474 114.776 99.5219 67.4653 51.8508C66.2239 50.5995 92.6933 89.6834 122.733 121.421C108.58 113.478 69.1381 84.7803 44.1687 61.9268C47.2364 67.0429 50.8852 71.9693 54.8961 76.712C75.7477 103.156 102.941 135.784 135.52 160.838C112.629 174.846 80.2853 175.935 48.0817 160.853C40.1165 157.12 32.6284 152.616 25.6968 147.499C39.3285 169.303 60.3233 188.115 85.876 199.098C116.349 212.193 146.651 211.306 169.221 199.313L169.203 199.338C169.306 199.273 169.437 199.202 169.544 199.136C170.471 198.638 171.391 198.131 172.29 197.595C183.134 191.966 204.552 186.256 216.049 208.624C218.864 214.099 224.847 185.088 202.851 158.023Z" fill="white"/>
</svg>
